<svg width="40" height="40" viewBox="0 0 40 40" fill="none" xmlns="http://www.w3.org/2000/svg">
  <defs>
    <linearGradient id="nimbus-fav" x1="0" y1="0" x2="40" y2="40" gradientUnits="userSpaceOnUse">
      <stop stop-color="#10B981"/>
      <stop offset="1" stop-color="#0EA5E9"/>
    </linearGradient>
  </defs>
  <rect width="40" height="40" rx="9" fill="url(#nimbus-fav)"/>
  <path d="M16 9C11.6 9 8 12.6 8 17c0 2.8 1.4 5.2 3.6 6.6l2.1-2.1C12.7 20.6 11.8 19 11.8 17c0-2.3 1.9-4.2 4.2-4.2 1 0 1.8.3 2.5.8l2-2C19.3 10.3 17.8 9 16 9z" fill="white" fill-opacity="0.95"/>
  <path d="M20.3 13.3C21.9 14.6 23 16.6 23 19c0 3.9-3.1 7-7 7-.9 0-1.8-.2-2.6-.5l-2.1 2.1c1.4.7 3 1.1 4.7 1.1 5.3 0 9.7-4.3 9.7-9.7 0-2.4-.9-4.6-2.3-6.3l-3 3z" fill="#0F172A"/>
  <circle cx="16" cy="17" r="2.1" fill="white"/>
</svg>
