<svg width="160" height="40" viewBox="0 0 160 40" fill="none" xmlns="http://www.w3.org/2000/svg">
  <defs>
    <linearGradient id="nimbus-mark-dark" x1="0" y1="0" x2="32" y2="32" gradientUnits="userSpaceOnUse">
      <stop stop-color="#34D399"/>
      <stop offset="1" stop-color="#22D3EE"/>
    </linearGradient>
  </defs>
  <path d="M16 4C9.4 4 4 9.4 4 16c0 4.2 2.2 7.9 5.5 10l3.2-3.2C10.7 21.5 9 19 9 16c0-3.9 3.1-7 7-7 1.6 0 3 .5 4.2 1.4l3-3C21 5.4 18.7 4 16 4z" fill="url(#nimbus-mark-dark)"/>
  <path d="M22.5 9.5C24.9 11.4 26.5 14.5 26.5 18c0 5.8-4.7 10.5-10.5 10.5-1.4 0-2.7-.3-3.9-.8l-3.2 3.2c2.1 1.1 4.5 1.6 7.1 1.6 8 0 14.5-6.5 14.5-14.5 0-3.6-1.3-6.9-3.5-9.4l-4.5 4.9z" fill="#E2E8F0"/>
  <circle cx="16" cy="16" r="3.2" fill="url(#nimbus-mark-dark)"/>
  <text x="44" y="26" font-family="Inter, system-ui, sans-serif" font-size="20" font-weight="700" fill="#F8FAFC" letter-spacing="-0.5">Nimbus</text>
  <text x="124" y="26" font-family="Inter, system-ui, sans-serif" font-size="20" font-weight="500" fill="#34D399" letter-spacing="-0.5">Pro</text>
</svg>
